<mxfile host="app.diagrams.net" modified="2021-08-05T06:51:07.459Z" agent="5.0 (Windows NT 10.0; WOW64) AppleWebKit/537.36 (KHTML, like Gecko) Chrome/92.0.4515.131 Safari/537.36" etag="0T3cBVHUWWx6_WihKIwE" version="14.9.2" type="github">
  <diagram id="WEavagxoX7mWQo-rN5Ej" name="Page-1">
    <mxGraphModel dx="302" dy="526" grid="0" gridSize="10" guides="1" tooltips="1" connect="1" arrows="1" fold="1" page="0" pageScale="1" pageWidth="827" pageHeight="1169" math="0" shadow="0">
      <root>
        <mxCell id="0" />
        <mxCell id="1" parent="0" />
        <mxCell id="207O5OkzuaK_un03Wp2c-2" value="" style="rounded=0;whiteSpace=wrap;html=1;strokeColor=#6c8ebf;fillColor=none;strokeWidth=3;fontSize=19;dashed=1;" parent="1" vertex="1">
          <mxGeometry x="1043" y="295" width="317" height="459" as="geometry" />
        </mxCell>
        <mxCell id="meVRYA2Hp27yC9P9ZgB7-14" value="" style="rounded=0;whiteSpace=wrap;html=1;strokeColor=#6c8ebf;fillColor=none;strokeWidth=3;fontSize=19;" parent="1" vertex="1">
          <mxGeometry x="1087" y="313" width="248" height="171" as="geometry" />
        </mxCell>
        <mxCell id="ZerdHR5X41I_D5glgdEe-2" style="edgeStyle=orthogonalEdgeStyle;rounded=0;orthogonalLoop=1;jettySize=auto;html=1;strokeWidth=2;" parent="1" source="meVRYA2Hp27yC9P9ZgB7-15" target="meVRYA2Hp27yC9P9ZgB7-16" edge="1">
          <mxGeometry relative="1" as="geometry" />
        </mxCell>
        <mxCell id="ZerdHR5X41I_D5glgdEe-4" style="edgeStyle=orthogonalEdgeStyle;rounded=0;orthogonalLoop=1;jettySize=auto;html=1;entryX=0.5;entryY=0;entryDx=0;entryDy=0;strokeWidth=2;startArrow=classic;startFill=1;" parent="1" source="meVRYA2Hp27yC9P9ZgB7-15" target="ZerdHR5X41I_D5glgdEe-1" edge="1">
          <mxGeometry relative="1" as="geometry" />
        </mxCell>
        <mxCell id="meVRYA2Hp27yC9P9ZgB7-15" value="&lt;b style=&quot;font-size: 19px;&quot;&gt;Matlab&lt;/b&gt;" style="rounded=1;whiteSpace=wrap;html=1;strokeColor=#6c8ebf;fillColor=#dae8fc;strokeWidth=3;fontSize=19;" parent="1" vertex="1">
          <mxGeometry x="1106" y="328" width="90" height="40" as="geometry" />
        </mxCell>
        <mxCell id="meVRYA2Hp27yC9P9ZgB7-16" value="&lt;b style=&quot;font-size: 19px;&quot;&gt;CodeV&lt;/b&gt;" style="rounded=1;whiteSpace=wrap;html=1;strokeColor=#6c8ebf;fillColor=#dae8fc;strokeWidth=3;fontSize=19;" parent="1" vertex="1">
          <mxGeometry x="1228" y="328" width="90" height="40" as="geometry" />
        </mxCell>
        <mxCell id="meVRYA2Hp27yC9P9ZgB7-17" value="&lt;b style=&quot;font-size: 19px&quot;&gt;计算节点1&lt;/b&gt;" style="text;html=1;strokeColor=none;fillColor=none;align=center;verticalAlign=middle;whiteSpace=wrap;rounded=0;fontSize=19;" parent="1" vertex="1">
          <mxGeometry x="1227.5" y="434" width="95" height="20" as="geometry" />
        </mxCell>
        <mxCell id="207O5OkzuaK_un03Wp2c-30" style="rounded=0;orthogonalLoop=1;jettySize=auto;html=1;entryX=0;entryY=0.5;entryDx=0;entryDy=0;exitX=1;exitY=0.5;exitDx=0;exitDy=0;startArrow=classic;startFill=1;strokeWidth=2;" parent="1" source="meVRYA2Hp27yC9P9ZgB7-23" target="meVRYA2Hp27yC9P9ZgB7-15" edge="1">
          <mxGeometry relative="1" as="geometry">
            <mxPoint x="894" y="430" as="targetPoint" />
          </mxGeometry>
        </mxCell>
        <mxCell id="ZerdHR5X41I_D5glgdEe-12" style="rounded=0;orthogonalLoop=1;jettySize=auto;html=1;entryX=0;entryY=0.5;entryDx=0;entryDy=0;startArrow=classic;startFill=1;strokeWidth=2;exitX=1;exitY=0.5;exitDx=0;exitDy=0;" parent="1" source="meVRYA2Hp27yC9P9ZgB7-23" target="ZerdHR5X41I_D5glgdEe-8" edge="1">
          <mxGeometry relative="1" as="geometry">
            <mxPoint x="909" y="491" as="sourcePoint" />
          </mxGeometry>
        </mxCell>
        <mxCell id="meVRYA2Hp27yC9P9ZgB7-23" value="&lt;b style=&quot;font-size: 19px;&quot;&gt;API SERVER&lt;/b&gt;" style="rounded=0;whiteSpace=wrap;html=1;fillColor=#f8cecc;strokeColor=#b85450;strokeWidth=3;fontSize=19;" parent="1" vertex="1">
          <mxGeometry x="857" y="445" width="120" height="60" as="geometry" />
        </mxCell>
        <mxCell id="207O5OkzuaK_un03Wp2c-13" value="&lt;b style=&quot;font-size: 19px&quot;&gt;计算服务器&lt;/b&gt;" style="text;html=1;strokeColor=none;fillColor=none;align=center;verticalAlign=middle;whiteSpace=wrap;rounded=0;fontSize=19;" parent="1" vertex="1">
          <mxGeometry x="1047" y="725" width="113" height="20" as="geometry" />
        </mxCell>
        <mxCell id="ZerdHR5X41I_D5glgdEe-1" value="&lt;b style=&quot;font-size: 19px&quot;&gt;NIO-TCP&lt;br&gt;PLUGINS&lt;br&gt;&lt;/b&gt;" style="rounded=1;whiteSpace=wrap;html=1;strokeColor=#d6b656;fillColor=#fff2cc;strokeWidth=3;fontSize=19;" parent="1" vertex="1">
          <mxGeometry x="1106" y="412" width="90" height="60" as="geometry" />
        </mxCell>
        <mxCell id="ZerdHR5X41I_D5glgdEe-5" value="" style="rounded=0;whiteSpace=wrap;html=1;strokeColor=#6c8ebf;fillColor=none;strokeWidth=3;fontSize=19;" parent="1" vertex="1">
          <mxGeometry x="1087" y="547" width="248" height="171" as="geometry" />
        </mxCell>
        <mxCell id="ZerdHR5X41I_D5glgdEe-6" style="edgeStyle=orthogonalEdgeStyle;rounded=0;orthogonalLoop=1;jettySize=auto;html=1;strokeWidth=2;" parent="1" source="ZerdHR5X41I_D5glgdEe-8" target="ZerdHR5X41I_D5glgdEe-9" edge="1">
          <mxGeometry relative="1" as="geometry" />
        </mxCell>
        <mxCell id="ZerdHR5X41I_D5glgdEe-7" style="edgeStyle=orthogonalEdgeStyle;rounded=0;orthogonalLoop=1;jettySize=auto;html=1;entryX=0.5;entryY=0;entryDx=0;entryDy=0;strokeWidth=2;startArrow=classic;startFill=1;" parent="1" source="ZerdHR5X41I_D5glgdEe-8" target="ZerdHR5X41I_D5glgdEe-11" edge="1">
          <mxGeometry relative="1" as="geometry" />
        </mxCell>
        <mxCell id="ZerdHR5X41I_D5glgdEe-8" value="&lt;b style=&quot;font-size: 19px;&quot;&gt;Matlab&lt;/b&gt;" style="rounded=1;whiteSpace=wrap;html=1;strokeColor=#6c8ebf;fillColor=#dae8fc;strokeWidth=3;fontSize=19;" parent="1" vertex="1">
          <mxGeometry x="1106" y="562" width="90" height="40" as="geometry" />
        </mxCell>
        <mxCell id="ZerdHR5X41I_D5glgdEe-9" value="&lt;b style=&quot;font-size: 19px;&quot;&gt;CodeV&lt;/b&gt;" style="rounded=1;whiteSpace=wrap;html=1;strokeColor=#6c8ebf;fillColor=#dae8fc;strokeWidth=3;fontSize=19;" parent="1" vertex="1">
          <mxGeometry x="1228" y="562" width="90" height="40" as="geometry" />
        </mxCell>
        <mxCell id="ZerdHR5X41I_D5glgdEe-10" value="&lt;b style=&quot;font-size: 19px&quot;&gt;计算节点n&lt;/b&gt;" style="text;html=1;strokeColor=none;fillColor=none;align=center;verticalAlign=middle;whiteSpace=wrap;rounded=0;fontSize=19;" parent="1" vertex="1">
          <mxGeometry x="1227.5" y="668" width="95" height="20" as="geometry" />
        </mxCell>
        <mxCell id="ZerdHR5X41I_D5glgdEe-11" value="&lt;b style=&quot;font-size: 19px&quot;&gt;NIO-TCP&lt;br&gt;&lt;/b&gt;&lt;b&gt;PLUGINS&lt;/b&gt;&lt;b style=&quot;font-size: 19px&quot;&gt;&lt;br&gt;&lt;/b&gt;" style="rounded=1;whiteSpace=wrap;html=1;strokeColor=#d6b656;fillColor=#fff2cc;strokeWidth=3;fontSize=19;" parent="1" vertex="1">
          <mxGeometry x="1106" y="646" width="90" height="60" as="geometry" />
        </mxCell>
        <mxCell id="ZerdHR5X41I_D5glgdEe-14" value="&lt;b&gt;......&lt;/b&gt;" style="text;html=1;strokeColor=none;fillColor=none;align=center;verticalAlign=middle;whiteSpace=wrap;rounded=0;fontSize=19;" parent="1" vertex="1">
          <mxGeometry x="1160" y="509" width="95" height="20" as="geometry" />
        </mxCell>
      </root>
    </mxGraphModel>
  </diagram>
</mxfile>
